<?xml version="1.0" encoding="UTF-8"?>
<svg width="16px" height="16px" viewBox="0 0 16 16" version="1.1" xmlns="http://www.w3.org/2000/svg" xmlns:xlink="http://www.w3.org/1999/xlink">
    <!-- Generator: Sketch 54.1 (76490) - https://sketchapp.com -->
    <title>UI Icon/skill</title>
    <desc>Created with Sketch.</desc>
    <defs>
        <path d="M14,6 C14.5522847,6 15,5.55228475 15,5 L15,2 C15,1.44771525 14.5522847,1 14,1 L2,1 C1.44771525,1 1,1.44771525 1,2 L1,5 C1,5.55228475 1.44771525,6 2,6 L7.5,6 L7.5,8 L4.5,8 C3.94771525,8 3.5,8.44771525 3.5,9 L3.5,11 L2,11 C1.44771525,11 1,11.4477153 1,12 L1,14 C1,14.5522847 1.44771525,15 2,15 L6,15 C6.55228475,15 7,14.5522847 7,14 L7,12 C7,11.4477153 6.55228475,11 6,11 L4.5,11 L4.5,9 L11.5,9 L11.5,11 L10,11 C9.44771525,11 9,11.4477153 9,12 L9,14 C9,14.5522847 9.44771525,15 10,15 L14,15 C14.5522847,15 15,14.5522847 15,14 L15,12 C15,11.4477153 14.5522847,11 14,11 L12.5,11 L12.5,9 C12.5,8.44771525 12.0522847,8 11.5,8 L8.5,8 L8.5,6 L14,6 Z M6,14 L2,14 L2,12 L6,12 L6,14 Z M14,14 L10,14 L10,12 L14,12 L14,14 Z M2,2 L14,2 L14,5 L2,5 L2,2 Z" id="path-1"></path>
    </defs>
    <g id="UI-Icon/skill" stroke="none" stroke-width="1" fill="none" fill-rule="evenodd">
        <g id="icon/data/parent-child/16">
            <mask id="mask-2" fill="white">
                <use xlink:href="#path-1"></use>
            </mask>
            <use id="icon-color" fill="#000000" fill-rule="evenodd" xlink:href="#path-1"></use>
        </g>
    </g>
</svg>