<?xml version="1.0" encoding="UTF-8"?>
<svg width="16px" height="16px" viewBox="0 0 16 16" version="1.1" xmlns="http://www.w3.org/2000/svg" xmlns:xlink="http://www.w3.org/1999/xlink">
    <!-- Generator: Sketch 54.1 (76490) - https://sketchapp.com -->
    <title>UI Icon/assistant</title>
    <desc>Created with Sketch.</desc>
    <defs>
        <path d="M8.87,15 L8,14.5 L10,11 L13,11 C13.5522847,11 14,10.5522847 14,10 L14,4 C14,3.44771525 13.5522847,3 13,3 L3,3 C2.44771525,3 2,3.44771525 2,4 L2,10 C2,10.5522847 2.44771525,11 3,11 L7.5,11 L7.5,12 L3,12 C1.8954305,12 1,11.1045695 1,10 L1,4 C1,2.8954305 1.8954305,2 3,2 L13,2 C14.1045695,2 15,2.8954305 15,4 L15,10 C15,11.1045695 14.1045695,12 13,12 L10.58,12 L8.87,15 Z M4,5 L12,5 L12,6 L4,6 L4,5 Z M4,8 L9,8 L9,9 L4,9 L4,8 Z" id="path-1"></path>
    </defs>
    <g id="UI-Icon/assistant" stroke="none" stroke-width="1" fill="none" fill-rule="evenodd">
        <g id="icon/image/chat/16">
            <mask id="mask-2" fill="white">
                <use xlink:href="#path-1"></use>
            </mask>
            <use id="icon-color" fill="#000000" fill-rule="evenodd" xlink:href="#path-1"></use>
        </g>
    </g>
</svg>